
<svg width="10" height="10" viewBox="0 0 10 10" fill="none" xmlns="http://www.w3.org/2000/svg">
<path fill-rule="evenodd" clip-rule="evenodd" d="M2.62021 2.71502C2.47571 2.57513 2.2413 2.57513 2.09682 2.71502L1.57331 3.22196C1.42881 3.36189 1.42881 3.58875 1.57331 3.72879L4.52315 6.58516C4.53592 6.59763 4.77077 6.73354 5.00421 6.73343C5.23513 6.73333 5.46463 6.59748 5.47738 6.58516L8.4271 3.72879C8.57159 3.58876 8.57159 3.36189 8.4271 3.22196L7.90363 2.71502C7.75914 2.57513 7.52483 2.57513 7.38035 2.71502L5.71456 4.32808V0.845928C5.71456 0.654981 5.55457 0.5 5.35734 0.5H4.64308C4.44591 0.5 4.286 0.654981 4.286 0.845928V4.32808L2.62021 2.71502ZM1.42854 9.49999H8.57145C9.36049 9.49999 9.99999 8.88079 10 8.1167V6.38748C10 6.19653 9.84011 6.04171 9.64292 6.04171H8.92864C8.73134 6.04171 8.57145 6.19653 8.57145 6.38748V7.42503C8.57145 7.80707 8.2517 8.1167 7.85718 8.1167H2.14281C1.7483 8.1167 1.42854 7.80707 1.42854 7.42503V6.38748C1.42854 6.19653 1.26866 6.04171 1.07147 6.04171H0.357066C0.160002 6.04171 0 6.19653 0 6.38748V8.11669C0 8.88079 0.639642 9.49999 1.42854 9.49999Z" fill="#A6A6A6"/>
</svg>
